<mxfile host="Electron" agent="Mozilla/5.0 (Windows NT 10.0; Win64; x64) AppleWebKit/537.36 (KHTML, like Gecko) draw.io/26.2.2 Chrome/134.0.6998.178 Electron/35.1.2 Safari/537.36" version="26.2.2">
  <diagram name="Page-1" id="HQoY2ezYmIkC8rdDnlK1">
    <mxGraphModel dx="1554" dy="1675" grid="1" gridSize="10" guides="1" tooltips="1" connect="1" arrows="1" fold="1" page="1" pageScale="1" pageWidth="850" pageHeight="1100" math="0" shadow="0">
      <root>
        <mxCell id="0" />
        <mxCell id="1" parent="0" />
        <mxCell id="sbbLn_6D0i0Udu7IFeJZ-1" value="" style="shape=image;verticalLabelPosition=bottom;labelBackgroundColor=default;verticalAlign=top;aspect=fixed;imageAspect=0;image=https://medialibrarycfo.entrata.com/18731/MLv3/4/22/2023/03/08/102537/64096dd161c290.14903244475.jpg;" parent="1" vertex="1">
          <mxGeometry x="-130" y="-80" width="819.73" height="1060" as="geometry" />
        </mxCell>
        <mxCell id="sbbLn_6D0i0Udu7IFeJZ-2" value="" style="rounded=0;whiteSpace=wrap;html=1;" parent="1" vertex="1">
          <mxGeometry x="199.86" y="-250" width="160" height="120" as="geometry" />
        </mxCell>
        <mxCell id="sbbLn_6D0i0Udu7IFeJZ-3" value="" style="rounded=0;whiteSpace=wrap;html=1;" parent="1" vertex="1">
          <mxGeometry x="98" y="280" width="160" height="75" as="geometry" />
        </mxCell>
        <mxCell id="sbbLn_6D0i0Udu7IFeJZ-4" value="" style="rounded=0;whiteSpace=wrap;html=1;" parent="1" vertex="1">
          <mxGeometry x="98" y="180" width="160" height="75" as="geometry" />
        </mxCell>
        <mxCell id="hGuSTpX8u1nu8OVo3tVj-2" value="" style="rounded=0;whiteSpace=wrap;html=1;" vertex="1" parent="1">
          <mxGeometry x="-520" y="-880" width="120" height="80" as="geometry" />
        </mxCell>
        <mxCell id="hGuSTpX8u1nu8OVo3tVj-3" value="" style="shape=trapezoid;perimeter=trapezoidPerimeter;whiteSpace=wrap;html=1;fixedSize=1;rotation=90;" vertex="1" parent="1">
          <mxGeometry x="-570" y="-855" width="70" height="30" as="geometry" />
        </mxCell>
        <mxCell id="hGuSTpX8u1nu8OVo3tVj-4" value="" style="shape=trapezoid;perimeter=trapezoidPerimeter;whiteSpace=wrap;html=1;fixedSize=1;rotation=-90;" vertex="1" parent="1">
          <mxGeometry x="-420" y="-855" width="70" height="30" as="geometry" />
        </mxCell>
        <mxCell id="hGuSTpX8u1nu8OVo3tVj-5" value="" style="endArrow=classic;html=1;rounded=0;entryX=0.5;entryY=1;entryDx=0;entryDy=0;" edge="1" parent="1" target="hGuSTpX8u1nu8OVo3tVj-3">
          <mxGeometry width="50" height="50" relative="1" as="geometry">
            <mxPoint x="-600" y="-840" as="sourcePoint" />
            <mxPoint x="-300" y="-700" as="targetPoint" />
          </mxGeometry>
        </mxCell>
        <mxCell id="hGuSTpX8u1nu8OVo3tVj-6" value="10" style="text;html=1;align=center;verticalAlign=middle;whiteSpace=wrap;rounded=0;fontSize=18;" vertex="1" parent="1">
          <mxGeometry x="-640" y="-855" width="40" height="30" as="geometry" />
        </mxCell>
        <mxCell id="hGuSTpX8u1nu8OVo3tVj-7" value="&lt;font style=&quot;font-size: 18px;&quot;&gt;f(x)&lt;/font&gt;" style="text;html=1;align=center;verticalAlign=middle;whiteSpace=wrap;rounded=0;" vertex="1" parent="1">
          <mxGeometry x="-490" y="-855" width="60" height="30" as="geometry" />
        </mxCell>
        <mxCell id="hGuSTpX8u1nu8OVo3tVj-10" value="25" style="text;html=1;align=center;verticalAlign=middle;whiteSpace=wrap;rounded=0;fontSize=18;" vertex="1" parent="1">
          <mxGeometry x="-320" y="-855" width="40" height="30" as="geometry" />
        </mxCell>
        <mxCell id="hGuSTpX8u1nu8OVo3tVj-11" value="" style="endArrow=classic;html=1;rounded=0;entryX=0.5;entryY=1;entryDx=0;entryDy=0;" edge="1" parent="1">
          <mxGeometry width="50" height="50" relative="1" as="geometry">
            <mxPoint x="-370" y="-840.34" as="sourcePoint" />
            <mxPoint x="-320" y="-840.34" as="targetPoint" />
          </mxGeometry>
        </mxCell>
      </root>
    </mxGraphModel>
  </diagram>
</mxfile>
